<svg xmlns="http://www.w3.org/2000/svg" xmlns:xlink="http://www.w3.org/1999/xlink" width="632" zoomAndPan="magnify" viewBox="0 0 474 525.000007" height="700" preserveAspectRatio="xMidYMid meet" version="1.0"><defs><clipPath id="84b363c41d"><path d="M 0.449219 0 L 473.546875 0 L 473.546875 524 L 0.449219 524 Z M 0.449219 0 " clip-rule="nonzero"/></clipPath><clipPath id="fe524c4f4e"><path d="M 88 74.859375 L 293 74.859375 L 293 395 L 88 395 Z M 88 74.859375 " clip-rule="nonzero"/></clipPath><clipPath id="d325a707cf"><path d="M 84 135 L 381.734375 135 L 381.734375 440 L 84 440 Z M 84 135 " clip-rule="nonzero"/></clipPath><clipPath id="d7c85542aa"><path d="M 229 208 L 396 208 L 396 222 L 229 222 Z M 229 208 " clip-rule="nonzero"/></clipPath><clipPath id="3fc1f8791a"><path d="M 263.265625 208.816406 L 397.289062 265.082031 L 363.699219 345.097656 L 229.671875 288.832031 Z M 263.265625 208.816406 " clip-rule="nonzero"/></clipPath><clipPath id="db71ce0e57"><path d="M 244.136719 -78.121094 L 526.191406 40.289062 L 380.910156 386.355469 L 98.855469 267.945312 Z M 244.136719 -78.121094 " clip-rule="nonzero"/></clipPath><clipPath id="d05c70883b"><path d="M 229 208 L 398 208 L 398 282 L 229 282 Z M 229 208 " clip-rule="nonzero"/></clipPath><clipPath id="ba8ce71bfa"><path d="M 263.265625 208.816406 L 397.289062 265.082031 L 363.699219 345.097656 L 229.671875 288.832031 Z M 263.265625 208.816406 " clip-rule="nonzero"/></clipPath><clipPath id="636e17b55c"><path d="M 244.136719 -78.121094 L 526.191406 40.289062 L 380.910156 386.355469 L 98.855469 267.945312 Z M 244.136719 -78.121094 " clip-rule="nonzero"/></clipPath></defs><g clip-path="url(#84b363c41d)"><path fill="#ffffff" d="M 0.449219 0 L 473.550781 0 L 473.550781 531.488281 L 0.449219 531.488281 Z M 0.449219 0 " fill-opacity="1" fill-rule="nonzero"/><path fill="#ffffff" d="M 0.449219 0 L 473.550781 0 L 473.550781 524 L 0.449219 524 Z M 0.449219 0 " fill-opacity="1" fill-rule="nonzero"/></g><g clip-path="url(#fe524c4f4e)"><path fill="#56aeff" d="M 292.664062 201.089844 L 256.550781 219.769531 L 230.660156 148.121094 L 204.214844 74.949219 L 177.765625 148.121094 L 88.808594 394.273438 C 107.050781 370.007812 138.625 337.800781 174.191406 304.363281 L 204.214844 221.296875 L 219.902344 264.710938 C 244.679688 242.414062 269.875 220.527344 292.664062 201.089844 " fill-opacity="1" fill-rule="nonzero"/></g><g clip-path="url(#d325a707cf)"><path fill="#004aad" d="M 157.738281 387.636719 C 152.207031 376.300781 183.621094 347.410156 224.007812 304.746094 C 260.328125 266.386719 313.679688 212.054688 381.703125 135.578125 C 381.753906 135.523438 381.695312 135.429688 381.632812 135.476562 C 373.640625 141.933594 284.359375 214.222656 205.730469 286.359375 C 136.667969 349.71875 75.816406 412.960938 85.496094 431.363281 C 93.785156 447.136719 171.558594 450.054688 300.746094 343.011719 C 300.820312 342.953125 300.757812 342.835938 300.675781 342.878906 C 291.0625 347.707031 168.105469 408.890625 157.738281 387.636719 " fill-opacity="1" fill-rule="nonzero"/></g><g clip-path="url(#d7c85542aa)"><g clip-path="url(#3fc1f8791a)"><g clip-path="url(#db71ce0e57)"><path fill="#56aeff" d="M 395.203125 122.203125 L 354.675781 125.445312 L 358.539062 49.363281 L 362.476562 -28.34375 L 309.765625 28.886719 L 132.464844 221.414062 C 158.675781 206.101562 200.253906 188.628906 245.992188 171.566406 L 305.828125 106.597656 L 303.488281 152.699219 C 334.964844 141.730469 366.667969 131.300781 395.203125 122.203125 " fill-opacity="1" fill-rule="nonzero"/></g></g></g><g clip-path="url(#d05c70883b)"><g clip-path="url(#ba8ce71bfa)"><g clip-path="url(#636e17b55c)"><path fill="#004aad" d="M 198.585938 241.976562 C 197.875 229.386719 238.023438 214.90625 291.777344 191.203125 C 340.113281 169.890625 410.335938 140.445312 502.660156 96.265625 C 502.730469 96.234375 502.707031 96.125 502.636719 96.140625 C 492.765625 99.003906 382.460938 131.097656 282.039062 167.171875 C 193.835938 198.863281 113.25 233.617188 115.046875 254.332031 C 116.585938 272.082031 187.167969 304.882812 347.722656 256.191406 C 347.808594 256.164062 347.796875 256.03125 347.707031 256.039062 C 336.972656 256.765625 199.917969 265.589844 198.585938 241.976562 " fill-opacity="1" fill-rule="nonzero"/></g></g></g></svg>